<svg height="512" viewBox="0 0 64 64" width="512" xmlns="http://www.w3.org/2000/svg"><g id="Layer_28" data-name="Layer 28"><path d="m30 17v-3.5a1.5 1.5 0 0 1 1.5-1.5 1.5 1.5 0 0 1 1.5 1.5v.5h1v3z" fill="#fddfb1"/><path d="m12 44h40v16h-40z" fill="#c18e5c"/><path d="m2 38h60v6h-60z" fill="#cda57d"/><path d="m52 44h6v18h-6z" fill="#cda57d"/><path d="m6 44h6v18h-6z" fill="#cda57d"/><path d="m24 15v4a5 5 0 0 1 -5 5 5 5 0 0 1 -5-5v-4h1.76a3.61 3.61 0 0 0 3.24-2 3.61 3.61 0 0 0 3.24 2z" fill="#fddfb1"/><path d="m14 19v-3h-2a2 2 0 0 0 0 4h2.1a5.47 5.47 0 0 1 -.1-1z" fill="#fddfb1"/><path d="m19 6a7 7 0 0 0 -7 7v3h2v-1h1.76a3.61 3.61 0 0 0 3.24-2 3.61 3.61 0 0 0 3.24 2h1.76v1h2v-3a7 7 0 0 0 -7-7z" fill="#cda57d"/><path d="m26 16h-2v3a5.47 5.47 0 0 1 -.1 1h2.1a2 2 0 0 0 0-4z" fill="#fddfb1"/><path d="m16 24.38v.62a3 3 0 0 0 6 0v-.62z" fill="#fddfb1"/><path d="m13 38v-9" fill="none" stroke="#000" stroke-linejoin="round" stroke-width="2"/><path d="m54 15a7 7 0 1 0 -10 6.32v2.68h6v-2.68a7 7 0 0 0 4-6.32z" fill="#f7d881"/><g fill="#c1c8d1"><path d="m45 24h4v4h-4z"/><path d="m46 1h2v4h-2z"/><path d="m51.38 3.5h4.24v2h-4.24z" transform="matrix(.707 -.707 .707 .707 12.49 39.15)"/><path d="m39.5 2.38h2v4.24h-2z" transform="matrix(.707 -.707 .707 .707 8.68 29.96)"/></g><path d="m47 8a7 7 0 0 0 -3.72 12.91 15.19 15.19 0 0 0 9.23-10.22 7 7 0 0 0 -5.51-2.69z" fill="#f9e09a"/><path d="m16 24v1a3 3 0 0 0 3 3 3 3 0 0 0 3-3v-1" fill="none" stroke="#000" stroke-linejoin="round" stroke-width="2"/><path d="m27 30h3a4 4 0 0 0 4-4v-9h-4v7h-15a6 6 0 0 0 -6 6v8h18z" fill="#4472b0"/><path d="m12 29h2v9h-2z" fill="#698ec0"/></g></svg>